<svg width="14" height="16" viewBox="0 0 14 16" fill="none" xmlns="http://www.w3.org/2000/svg">
<path fill-rule="evenodd" clip-rule="evenodd" d="M1.75 2.16667C1.75 1.52233 2.20704 1 2.77083 1H5.97917C6.22079 1 6.41667 1.22386 6.41667 1.5C6.41667 1.77614 6.22079 2 5.97917 2H2.77083C2.69029 2 2.625 2.07462 2.625 2.16667V13.8333C2.625 13.9254 2.69029 14 2.77083 14H5.97917C6.22079 14 6.41667 14.2239 6.41667 14.5C6.41667 14.7761 6.22079 15 5.97917 15H2.77083C2.20704 15 1.75 14.4777 1.75 13.8333V2.16667ZM11.087 7.5H6.27083C6.02921 7.5 5.83333 7.72386 5.83333 8C5.83333 8.27614 6.02921 8.5 6.27083 8.5L11.087 8.5L9.16156 10.8228C8.99539 11.0233 9.00287 11.3397 9.17828 11.5296C9.35369 11.7196 9.6306 11.711 9.79677 11.5105L12.4218 8.34387C12.5816 8.15103 12.5816 7.84898 12.4218 7.65613L9.79677 4.48946C9.6306 4.289 9.35369 4.28044 9.17828 4.47036C9.00287 4.66027 8.99539 4.97674 9.16156 5.17721L11.087 7.5Z" fill="white"/>
</svg>
