<svg width="94" height="94" viewBox="0 0 94 94" fill="none" xmlns="http://www.w3.org/2000/svg">
<g filter="url(#filter0_d_4_267)">
<circle cx="47" cy="41" r="35" fill="#C9C9C9"/>
<circle cx="47" cy="41" r="34.9" stroke="black" stroke-opacity="0.2" stroke-width="0.2"/>
</g>
<path fill-rule="evenodd" clip-rule="evenodd" d="M59.4863 67.7103C55.8248 70.3807 51.314 71.9564 46.4352 71.9564C41.4576 71.9564 36.863 70.3161 33.1626 67.5466C33.6627 67.3404 34.1629 67.1436 34.655 66.9499C37.4659 65.844 40.015 64.8411 40.7838 62.771C40.9106 61.3927 40.9016 60.3407 40.8917 59.178C40.889 58.8546 40.8861 58.5227 40.8861 58.1728C40.0844 57.7548 38.6004 55.0888 38.3616 52.8366C37.7347 52.7854 36.7497 52.1755 36.4554 49.7612C36.3019 48.4645 36.9202 47.7351 37.2998 47.5047C35.1804 39.3491 36.3445 32.2257 46.0119 32.0465C48.4256 32.0465 50.2849 32.6906 51.0141 33.966C58.0674 34.9471 55.948 44.4378 54.9288 47.5047C55.3083 47.7351 55.9267 48.4645 55.7731 49.7612C55.4832 52.1755 54.4938 52.7854 53.867 52.8366C53.6281 55.0888 52.1996 57.7548 51.4021 58.1728C51.4021 58.5366 51.3989 58.8811 51.3957 59.2166C51.3848 60.3641 51.3748 61.4079 51.5002 62.771C52.2689 64.8407 54.8082 65.8437 57.6079 66.9494C58.2267 67.1938 58.8583 67.4432 59.4863 67.7103Z" fill="#B0B4BB"/>
<defs>
<filter id="filter0_d_4_267" x="0" y="0" width="94" height="94" filterUnits="userSpaceOnUse" color-interpolation-filters="sRGB">
<feFlood flood-opacity="0" result="BackgroundImageFix"/>
<feColorMatrix in="SourceAlpha" type="matrix" values="0 0 0 0 0 0 0 0 0 0 0 0 0 0 0 0 0 0 127 0" result="hardAlpha"/>
<feOffset dy="6"/>
<feGaussianBlur stdDeviation="6"/>
<feColorMatrix type="matrix" values="0 0 0 0 0 0 0 0 0 0 0 0 0 0 0 0 0 0 0.06 0"/>
<feBlend mode="normal" in2="BackgroundImageFix" result="effect1_dropShadow_4_267"/>
<feBlend mode="normal" in="SourceGraphic" in2="effect1_dropShadow_4_267" result="shape"/>
</filter>
</defs>
</svg>
